<svg xmlns="http://www.w3.org/2000/svg" viewBox="0 0 426.46 511.76"><g id="Layer_2" data-name="Layer 2"><g id="Layer_1-2" data-name="Layer 1"><path id="add-document" d="M298.53,341.17a21.32,21.32,0,0,1-21.32,21.32H234.56v42.65a21.33,21.33,0,1,1-42.65,0V362.49H149.26a21.32,21.32,0,0,1,0-42.64h42.65V277.24a21.33,21.33,0,1,1,42.65,0v42.64h42.68A21.33,21.33,0,0,1,298.53,341.17Zm127.93-117.6V405.14A106.75,106.75,0,0,1,319.85,511.76H106.64A106.75,106.75,0,0,1,0,405.14V106.62A106.74,106.74,0,0,1,106.62,0h96.27A148.39,148.39,0,0,1,308.44,43.71l74.3,74.34A148.19,148.19,0,0,1,426.46,223.57ZM278.29,73.86a106.93,106.93,0,0,0-22.41-16.63v92a21.31,21.31,0,0,0,21.32,21.32h92a106.29,106.29,0,0,0-16.65-22.39ZM383.8,223.57c0-3.52-.68-6.89-1-10.34H277.24a64,64,0,0,1-64-63.9V43.66c-3.45-.32-6.85-1-10.34-1H106.62a64,64,0,0,0-64,64V405.14a64,64,0,0,0,64,64h213.2a64,64,0,0,0,64-64h0Z" fill="#4ab3a9"/></g></g></svg>