<svg xmlns="http://www.w3.org/2000/svg" viewBox="0 0 512.1 426.75"><g id="Layer_2" data-name="Layer 2"><g id="Layer_1-2" data-name="Layer 1"><g id="Layer_2-2" data-name="Layer 2"><g id="Layer_1-2-2" data-name="Layer 1-2"><path id="barcode-read" d="M85.35,85.35H128v256H85.35Zm85.35,256h42.67v-256H170.7Zm256.05-256H384.07v256h42.68Zm-192,256h64.46v-256H234.71Zm-192,21.34v-64H0v64a63.75,63.75,0,0,0,64,64h64V383.63H64c-11.56,0-21.34-9.33-21.34-20.89Zm426.75,0a21.33,21.33,0,0,1-21.33,21.33H383.63v42.68h64.46a64,64,0,0,0,64-64v-64H469ZM448.53,0h-64.9V42.67h64.46c11.56,0,21.34,9.34,21.34,20.9V128h42.23V64C512.54,28.45,483.65,0,448.53,0ZM0,64v64H42.67V64A21.35,21.35,0,0,1,64,42.67h64V0H64A63.75,63.75,0,0,0,0,64ZM341.4,341.4H320.06v-256H341.4Z" fill="#4ab3a9"/></g></g></g></g></svg>