<svg xmlns="http://www.w3.org/2000/svg" viewBox="0 0 17.13 14.27"><g id="Layer_2" data-name="Layer 2"><g id="Layer_1-2" data-name="Layer 1"><path id="barcode-read" d="M2.85,2.85H4.28v8.57H2.85Zm2.86,8.57H7.14V2.85H5.71Zm8.56-8.57H12.84v8.57h1.43ZM7.85,11.42H10V2.85H7.85Zm-6.42.71V10H0v2.14a2.14,2.14,0,0,0,2.14,2.14H4.28V12.84H2.14A.71.71,0,0,1,1.43,12.13Zm14.27,0a.71.71,0,0,1-.72.71H12.84v1.43H15a2.14,2.14,0,0,0,2.14-2.14V10H15.7ZM15,0H12.84V1.43H15a.71.71,0,0,1,.72.71V4.28h1.42V2.14A2.14,2.14,0,0,0,15,0ZM0,2.14V4.28H1.43V2.14a.71.71,0,0,1,.71-.71H4.28V0H2.14A2.14,2.14,0,0,0,0,2.14Zm11.42,9.28H10.7V2.85h.71Z" fill="#4ab3a9"/></g></g></svg>