<svg xmlns="http://www.w3.org/2000/svg" viewBox="0 0 19.02 19.01"><g id="Layer_2" data-name="Layer 2"><g id="Layer_1-2" data-name="Layer 1"><path id="Path_11" data-name="Path 11" d="M13.47,14.25V19h3.17A2.38,2.38,0,0,0,19,16.63h0V9.4a1.61,1.61,0,0,0-.44-1.1L11.84,1A3.17,3.17,0,0,0,7.36.84h0L7.18,1,.46,8.3A1.62,1.62,0,0,0,0,9.42v7.21A2.37,2.37,0,0,0,2.38,19H5.55V14.25a4,4,0,0,1,7.92-.12Z" fill="#4ab3a9"/><path id="Path_12" data-name="Path 12" d="M9.51,11.88a2.38,2.38,0,0,0-2.38,2.38V19h4.76V14.26A2.38,2.38,0,0,0,9.51,11.88Z" fill="#4ab3a9"/></g></g></svg>