<svg xmlns="http://www.w3.org/2000/svg" viewBox="0 0 511.75 512.02"><g id="Layer_2" data-name="Layer 2"><g id="Layer_1-2" data-name="Layer 1"><g id="Layer_2-2" data-name="Layer 2"><g id="Layer_1-2-2" data-name="Layer 1-2"><path id="Path_11" data-name="Path 11" d="M362.81,384.08V512h85.38a64.1,64.1,0,0,0,63.56-63.84h0V253.45a43.32,43.32,0,0,0-11.85-29.63L318.9,27.2a85.37,85.37,0,0,0-120.66-4.31h0l-4.85,4.31-181,196.62A43.68,43.68,0,0,0,0,254V448.18A63.84,63.84,0,0,0,63.83,512h85.66V384.08a107.74,107.74,0,0,1,213.32-3.23Z" fill="#4ab3a9"/><path id="Path_12" data-name="Path 12" d="M256.15,320.25A64.1,64.1,0,0,0,192,384.35V512H320.25V384.35A64.1,64.1,0,0,0,256.15,320.25Z" fill="#4ab3a9"/></g></g></g></g></svg>