<svg xmlns="http://www.w3.org/2000/svg" viewBox="0 0 23.89 16.09"><g id="Layer_2" data-name="Layer 2"><g id="Layer_1-2" data-name="Layer 1"><path id="Path_14" data-name="Path 14" d="M5.41,5.82A2.91,2.91,0,1,0,2.5,2.91,2.91,2.91,0,0,0,5.41,5.82Zm3.66,2A3.81,3.81,0,0,1,8.3,6.52,3.71,3.71,0,0,0,7,6.29H3.85A3.84,3.84,0,0,0,0,10.13H0V12.8a14.49,14.49,0,0,0,5.41,1h.16V12.43A4.82,4.82,0,0,1,9.07,7.8Zm9.41-2a2.91,2.91,0,1,0-2.91-2.91,2.91,2.91,0,0,0,2.91,2.91Zm1.57.47H16.91a3.75,3.75,0,0,0-1.32.23,3.81,3.81,0,0,1-.77,1.28,4.82,4.82,0,0,1,3.5,4.63v1.36h.16a14.49,14.49,0,0,0,5.41-1V10.13a3.83,3.83,0,0,0-3.84-3.84ZM9.34,6.51a2.92,2.92,0,0,0,3.93,1.3,2.88,2.88,0,0,0,1.28-1.3,3.35,3.35,0,0,0,.25-.69,2.91,2.91,0,1,0-5.46.69Zm4.17,2.07H10.38a3.85,3.85,0,0,0-3.85,3.85h0V15.1a15.3,15.3,0,0,0,10.83,0V12.43a3.85,3.85,0,0,0-3.84-3.85Z" fill="#4ab3a9"/></g></g></svg>