<svg xmlns="http://www.w3.org/2000/svg" viewBox="0 0 16.56 15.29"><g id="Layer_2" data-name="Layer 2"><g id="Layer_1-2" data-name="Layer 1"><path id="list-check" d="M1.11,3.49,0,2.39l1-1L2.1,2.51a.71.71,0,0,0,1,0L5.59,0l1,1L4.07,3.49A2.09,2.09,0,0,1,1.11,3.49Zm7.07-.08h8.38V2H8.18ZM2.59,9.7a2.06,2.06,0,0,0,1.48-.62l2.51-2.5-1-1L3.08,8.1a.71.71,0,0,1-1,0L1,7,0,8l1.11,1.1A2.06,2.06,0,0,0,2.59,9.7ZM8.18,9h8.38V7.6H8.18ZM2.59,15.29a2.09,2.09,0,0,0,1.48-.61l2.51-2.51-1-1L3.08,13.69a.71.71,0,0,1-1,0L1,12.58l-1,1,1.11,1.11a2.09,2.09,0,0,0,1.48.61Zm5.59-.7h8.38v-1.4H8.18Z" fill="#4ab3a9"/></g></g></svg>