<svg xmlns="http://www.w3.org/2000/svg" viewBox="0 0 89.65 130.54"><g id="Layer_2" data-name="Layer 2"><g id="Layer_1-2" data-name="Layer 1"><g id="Group_1696" data-name="Group 1696"><path id="Path_5" data-name="Path 5" d="M86.13,68.28a45.51,45.51,0,0,0-3.95-7.34V37.19a37.18,37.18,0,1,0-74.35,0V60.41a44.82,44.82,0,1,0,78.3,7.87ZM45,11.84A25.35,25.35,0,0,1,70.36,37.19V48.88a44.81,44.81,0,0,0-50.71-.25V37.19A25.39,25.39,0,0,1,45,11.84Zm-.17,106.9a33,33,0,1,1,33-33h0a33,33,0,0,1-33,33Z" fill="#4ab3a9"/><path id="Path_6" data-name="Path 6" d="M55.41,77.41a10.62,10.62,0,1,0-15.72,9.3v13.67a5.1,5.1,0,0,0,5.1,5.1h0a5.1,5.1,0,0,0,5.11-5.1V86.71A10.62,10.62,0,0,0,55.41,77.41Z" fill="#4ab3a9"/></g></g></g></svg>